<mxfile host="app.diagrams.net" agent="Mozilla/5.0 (Windows NT 10.0; Win64; x64) AppleWebKit/537.36 (KHTML, like Gecko) Chrome/133.0.0.0 Safari/537.36" version="26.0.16">
  <diagram name="第 1 页" id="nXQOnZE0P9oZ-52Qd-Zr">
    <mxGraphModel dx="1185" dy="632" grid="1" gridSize="10" guides="1" tooltips="1" connect="1" arrows="1" fold="1" page="1" pageScale="1" pageWidth="827" pageHeight="1169" math="0" shadow="0">
      <root>
        <mxCell id="0" />
        <mxCell id="1" parent="0" />
        <mxCell id="Im-q3gLvqHqA-51huI1s-6" style="edgeStyle=orthogonalEdgeStyle;rounded=0;orthogonalLoop=1;jettySize=auto;html=1;exitX=1;exitY=0.5;exitDx=0;exitDy=0;entryX=0;entryY=0.5;entryDx=0;entryDy=0;" edge="1" parent="1" source="Im-q3gLvqHqA-51huI1s-1" target="Im-q3gLvqHqA-51huI1s-2">
          <mxGeometry relative="1" as="geometry" />
        </mxCell>
        <mxCell id="Im-q3gLvqHqA-51huI1s-1" value="匹配滤波" style="rounded=1;whiteSpace=wrap;html=1;fillColor=#fff2cc;strokeColor=#d6b656;" vertex="1" parent="1">
          <mxGeometry x="120" y="560" width="110" height="40" as="geometry" />
        </mxCell>
        <mxCell id="Im-q3gLvqHqA-51huI1s-7" style="edgeStyle=orthogonalEdgeStyle;rounded=0;orthogonalLoop=1;jettySize=auto;html=1;exitX=1;exitY=0.5;exitDx=0;exitDy=0;" edge="1" parent="1" source="Im-q3gLvqHqA-51huI1s-2" target="Im-q3gLvqHqA-51huI1s-3">
          <mxGeometry relative="1" as="geometry" />
        </mxCell>
        <mxCell id="Im-q3gLvqHqA-51huI1s-2" value="采样" style="rounded=1;whiteSpace=wrap;html=1;fillColor=#fff2cc;strokeColor=#d6b656;" vertex="1" parent="1">
          <mxGeometry x="260" y="560" width="110" height="40" as="geometry" />
        </mxCell>
        <mxCell id="Im-q3gLvqHqA-51huI1s-8" style="edgeStyle=orthogonalEdgeStyle;rounded=0;orthogonalLoop=1;jettySize=auto;html=1;exitX=0.5;exitY=1;exitDx=0;exitDy=0;entryX=0.5;entryY=0;entryDx=0;entryDy=0;" edge="1" parent="1" source="Im-q3gLvqHqA-51huI1s-3" target="Im-q3gLvqHqA-51huI1s-5">
          <mxGeometry relative="1" as="geometry" />
        </mxCell>
        <mxCell id="Im-q3gLvqHqA-51huI1s-10" style="edgeStyle=orthogonalEdgeStyle;rounded=0;orthogonalLoop=1;jettySize=auto;html=1;exitX=1;exitY=0.5;exitDx=0;exitDy=0;entryX=0;entryY=0.5;entryDx=0;entryDy=0;" edge="1" parent="1" source="Im-q3gLvqHqA-51huI1s-3" target="Im-q3gLvqHqA-51huI1s-4">
          <mxGeometry relative="1" as="geometry" />
        </mxCell>
        <mxCell id="Im-q3gLvqHqA-51huI1s-3" value="数据缓存" style="rounded=1;whiteSpace=wrap;html=1;fillColor=#fff2cc;strokeColor=#d6b656;" vertex="1" parent="1">
          <mxGeometry x="400" y="560" width="110" height="40" as="geometry" />
        </mxCell>
        <mxCell id="Im-q3gLvqHqA-51huI1s-12" style="edgeStyle=orthogonalEdgeStyle;rounded=0;orthogonalLoop=1;jettySize=auto;html=1;exitX=1;exitY=0.5;exitDx=0;exitDy=0;" edge="1" parent="1" source="Im-q3gLvqHqA-51huI1s-4">
          <mxGeometry relative="1" as="geometry">
            <mxPoint x="680" y="580" as="targetPoint" />
          </mxGeometry>
        </mxCell>
        <mxCell id="Im-q3gLvqHqA-51huI1s-4" value="内插滤波" style="rounded=1;whiteSpace=wrap;html=1;fillColor=#fff2cc;strokeColor=#d6b656;" vertex="1" parent="1">
          <mxGeometry x="540" y="560" width="110" height="40" as="geometry" />
        </mxCell>
        <mxCell id="Im-q3gLvqHqA-51huI1s-9" style="edgeStyle=orthogonalEdgeStyle;rounded=0;orthogonalLoop=1;jettySize=auto;html=1;exitX=1;exitY=0.5;exitDx=0;exitDy=0;entryX=0.5;entryY=1;entryDx=0;entryDy=0;" edge="1" parent="1" source="Im-q3gLvqHqA-51huI1s-5" target="Im-q3gLvqHqA-51huI1s-4">
          <mxGeometry relative="1" as="geometry" />
        </mxCell>
        <mxCell id="Im-q3gLvqHqA-51huI1s-5" value="定时估计" style="rounded=1;whiteSpace=wrap;html=1;fillColor=#fff2cc;strokeColor=#d6b656;" vertex="1" parent="1">
          <mxGeometry x="400" y="630" width="110" height="40" as="geometry" />
        </mxCell>
        <mxCell id="Im-q3gLvqHqA-51huI1s-16" value="输入" style="text;html=1;align=center;verticalAlign=middle;resizable=0;points=[];autosize=1;strokeColor=none;fillColor=none;" vertex="1" parent="1">
          <mxGeometry x="80" y="555" width="50" height="30" as="geometry" />
        </mxCell>
        <mxCell id="Im-q3gLvqHqA-51huI1s-17" value="输出" style="text;html=1;align=center;verticalAlign=middle;resizable=0;points=[];autosize=1;strokeColor=none;fillColor=none;" vertex="1" parent="1">
          <mxGeometry x="640" y="555" width="50" height="30" as="geometry" />
        </mxCell>
        <mxCell id="Im-q3gLvqHqA-51huI1s-18" style="edgeStyle=orthogonalEdgeStyle;rounded=0;orthogonalLoop=1;jettySize=auto;html=1;exitX=1;exitY=0.5;exitDx=0;exitDy=0;entryX=0;entryY=0.5;entryDx=0;entryDy=0;" edge="1" parent="1">
          <mxGeometry relative="1" as="geometry">
            <mxPoint x="90" y="579.71" as="sourcePoint" />
            <mxPoint x="120" y="579.71" as="targetPoint" />
          </mxGeometry>
        </mxCell>
      </root>
    </mxGraphModel>
  </diagram>
</mxfile>
